# OBJ generated by ONSHAPE BY PTC INC, 1.209 Units = meters
mtllib CoupoleBille.mtl
g CoupoleBille
v 0.0203191 -0.00220984 0 
v 0.0199611 -0.00439377 0 
v 0.019369 -0.00652618 0 
v 0.0185499 -0.00858209 0 
v 0.0175132 -0.0105374 0 
v 0.0162713 -0.0123691 0 
v 0.0148386 -0.0140558 0 
v 0.0132319 -0.0155778 0 
v 0.0114701 -0.0169171 0 
v 0.00957377 -0.018058 0 
v 0.00756523 -0.0189873 0 
v 0.00546799 -0.0196939 0 
v 0.00330665 -0.0201697 0 
v 0.00110654 -0.020409 0 
v -0.00110654 -0.020409 0 
v -0.00330665 -0.0201697 0 
v -0.00546799 -0.0196939 0 
v -0.00756523 -0.0189873 0 
v -0.00957377 -0.018058 0 
v -0.0114701 -0.0169171 0 
v -0.0132319 -0.0155778 0 
v -0.0148386 -0.0140558 0 
v -0.0162713 -0.0123691 0 
v -0.0175132 -0.0105374 0 
v -0.0185499 -0.00858209 0 
v -0.019369 -0.00652618 0 
v -0.0199611 -0.00439377 0 
v -0.0203191 -0.00220984 0 
v -0.0204389 1.56504e-17 0 
v -0.0203191 0.00220984 0 
v -0.0199611 0.00439377 0 
v -0.019369 0.00652618 0 
v -0.0185499 0.00858209 0 
v -0.0175132 0.0105374 0 
v -0.0162713 0.0123691 0 
v -0.0148386 0.0140558 0 
v -0.0132319 0.0155778 0 
v -0.0114701 0.0169171 0 
v -0.00957377 0.018058 0 
v -0.00756523 0.0189873 0 
v -0.00546799 0.0196939 0 
v -0.00330665 0.0201697 0 
v -0.00110654 0.020409 0 
v 0.00110654 0.020409 0 
v 0.00330665 0.0201697 0 
v 0.00546799 0.0196939 0 
v 0.00756523 0.0189873 0 
v 0.00957377 0.018058 0 
v 0.0114701 0.0169171 0 
v 0.0132319 0.0155778 0 
v 0.0148386 0.0140558 0 
v 0.0162713 0.0123691 0 
v 0.0175132 0.0105374 0 
v 0.0185499 0.00858209 0 
v 0.019369 0.00652618 0 
v 0.0199611 0.00439377 0 
v 0.0203191 0.00220984 0 
v 0.0204389 0 0 
v 0.0068347 0 -0.00133307 
v 0.00679463 -0.000738961 -0.00133307 
v 0.0135731 -0.00147616 -0.00083267 
v 0.00667491 -0.00146926 -0.00133307 
v 0.0133339 -0.00293501 -0.00083267 
v 0.00647692 -0.00218233 -0.00133307 
v 0.0129384 -0.00435945 -0.00083267 
v 0.006203 -0.00286981 -0.00133307 
v 0.0123912 -0.00573279 -0.00083267 
v 0.00585636 -0.00352365 -0.00133307 
v 0.0116988 -0.00703891 -0.00083267 
v 0.00544105 -0.00413618 -0.00133307 
v 0.0108691 -0.0082625 -0.00083267 
v 0.00496196 -0.00470022 -0.00133307 
v 0.00991209 -0.00938923 -0.00083267 
v 0.00442469 -0.00520915 -0.00133307 
v 0.00883883 -0.0104059 -0.00083267 
v 0.00383554 -0.005657 -0.00133307 
v 0.00766194 -0.0113005 -0.00083267 
v 0.00320143 -0.00603854 -0.00133307 
v 0.00639522 -0.0120627 -0.00083267 
v 0.00252978 -0.00634927 -0.00133307 
v 0.00505353 -0.0126834 -0.00083267 
v 0.00182848 -0.00658557 -0.00133307 
v 0.00365259 -0.0131554 -0.00083267 
v 0.00110573 -0.00674466 -0.00133307 
v 0.00220882 -0.0134732 -0.00083267 
v 0.000370023 -0.00682467 -0.00133307 
v 0.000739164 -0.0136331 -0.00083267 
v -0.000370023 -0.00682467 -0.00133307 
v -0.000739164 -0.0136331 -0.00083267 
v -0.00110573 -0.00674466 -0.00133307 
v -0.00220882 -0.0134732 -0.00083267 
v -0.00182848 -0.00658557 -0.00133307 
v -0.00365259 -0.0131554 -0.00083267 
v -0.00252978 -0.00634927 -0.00133307 
v -0.00505353 -0.0126834 -0.00083267 
v -0.00320143 -0.00603854 -0.00133307 
v -0.00639522 -0.0120627 -0.00083267 
v -0.00383554 -0.005657 -0.00133307 
v -0.00766194 -0.0113005 -0.00083267 
v -0.00442469 -0.00520915 -0.00133307 
v -0.00883883 -0.0104059 -0.00083267 
v -0.00496196 -0.00470022 -0.00133307 
v -0.00991209 -0.00938923 -0.00083267 
v -0.00544105 -0.00413618 -0.00133307 
v -0.0108691 -0.0082625 -0.00083267 
v -0.00585636 -0.00352365 -0.00133307 
v -0.0116988 -0.00703891 -0.00083267 
v -0.006203 -0.00286981 -0.00133307 
v -0.0123912 -0.00573279 -0.00083267 
v -0.00647692 -0.00218233 -0.00133307 
v -0.0129384 -0.00435945 -0.00083267 
v -0.00667491 -0.00146926 -0.00133307 
v -0.0133339 -0.00293501 -0.00083267 
v -0.00679463 -0.000738961 -0.00133307 
v -0.0135731 -0.00147616 -0.00083267 
v -0.0068347 1.42276e-18 -0.00133307 
v -0.0136531 2.84212e-18 -0.00083267 
v -0.00679463 0.000738961 -0.00133307 
v -0.0135731 0.00147616 -0.00083267 
v -0.00667491 0.00146926 -0.00133307 
v -0.0133339 0.00293501 -0.00083267 
v -0.00647692 0.00218233 -0.00133307 
v -0.0129384 0.00435945 -0.00083267 
v -0.006203 0.00286981 -0.00133307 
v -0.0123912 0.00573279 -0.00083267 
v -0.00585636 0.00352365 -0.00133307 
v -0.0116988 0.00703891 -0.00083267 
v -0.00544105 0.00413618 -0.00133307 
v -0.0108691 0.0082625 -0.00083267 
v -0.00496196 0.00470022 -0.00133307 
v -0.00991209 0.00938923 -0.00083267 
v -0.00442469 0.00520915 -0.00133307 
v -0.00883883 0.0104059 -0.00083267 
v -0.00383554 0.005657 -0.00133307 
v -0.00766194 0.0113005 -0.00083267 
v -0.00320143 0.00603854 -0.00133307 
v -0.00639522 0.0120627 -0.00083267 
v -0.00252978 0.00634927 -0.00133307 
v -0.00505353 0.0126834 -0.00083267 
v -0.00182848 0.00658557 -0.00133307 
v -0.00365259 0.0131554 -0.00083267 
v -0.00110573 0.00674466 -0.00133307 
v -0.00220882 0.0134732 -0.00083267 
v -0.000370023 0.00682467 -0.00133307 
v -0.000739164 0.0136331 -0.00083267 
v 0.000370023 0.00682467 -0.00133307 
v 0.000739164 0.0136331 -0.00083267 
v 0.00110573 0.00674466 -0.00133307 
v 0.00220882 0.0134732 -0.00083267 
v 0.00182848 0.00658557 -0.00133307 
v 0.00365259 0.0131554 -0.00083267 
v 0.00252978 0.00634927 -0.00133307 
v 0.00505353 0.0126834 -0.00083267 
v 0.00320143 0.00603854 -0.00133307 
v 0.00639522 0.0120627 -0.00083267 
v 0.00383554 0.005657 -0.00133307 
v 0.00766194 0.0113005 -0.00083267 
v 0.00442469 0.00520915 -0.00133307 
v 0.00883883 0.0104059 -0.00083267 
v 0.00496196 0.00470022 -0.00133307 
v 0.00991209 0.00938923 -0.00083267 
v 0.00544105 0.00413618 -0.00133307 
v 0.0108691 0.0082625 -0.00083267 
v 0.00585636 0.00352365 -0.00133307 
v 0.0116988 0.00703891 -0.00083267 
v 0.006203 0.00286981 -0.00133307 
v 0.0123912 0.00573279 -0.00083267 
v 0.00647692 0.00218233 -0.00133307 
v 0.0129384 0.00435945 -0.00083267 
v 0.00667491 0.00146926 -0.00133307 
v 0.0133339 0.00293501 -0.00083267 
v 0.00679463 0.000738961 -0.00133307 
v 0.0135731 0.00147616 -0.00083267 
v 0.0136531 0 -0.00083267 
v 3.08149e-33 0 -0.0015 
v -0.025 -0.025 0 
v 0.025 -0.025 0 
v -0.025 0.025 0 
v 0.025 0.025 0 
v 0.025 0.025 -0.003 
v 0.025 -0.025 -0.003 
v -0.025 0.025 -0.003 
v -0.025 -0.025 -0.003 
vn -0.0488193 0 0.998808 
vn -0.0485331 0.00527829 0.998808 
vn -0.0969504 0.010544 0.995233 
vn -0.0476779 0.0104947 0.998808 
vn -0.0952421 0.0209644 0.995233 
vn -0.0462637 0.0155881 0.998808 
vn -0.0924171 0.031139 0.995233 
vn -0.0443072 0.0204987 0.998808 
vn -0.0885087 0.0409485 0.995233 
vn -0.0418311 0.025169 0.998808 
vn -0.0835625 0.0502779 0.995233 
vn -0.0388647 0.0295442 0.998808 
vn -0.0776367 0.0590179 0.995233 
vn -0.0354426 0.033573 0.998808 
vn -0.0708006 0.0670659 0.995233 
vn -0.0316049 0.0372082 0.998808 
vn -0.0631345 0.0743276 0.995233 
vn -0.0273967 0.0404072 0.998808 
vn -0.0547281 0.080718 0.995233 
vn -0.0228674 0.0431324 0.998808 
vn -0.0456802 0.086162 0.995233 
vn -0.0180699 0.045352 0.998808 
vn -0.0360967 0.0905958 0.995233 
vn -0.0130605 0.0470398 0.998808 
vn -0.0260899 0.0939674 0.995233 
vn -0.00789808 0.0481761 0.998808 
vn -0.0157773 0.0962374 0.995233 
vn -0.00264302 0.0487477 0.998808 
vn -0.00527974 0.0973791 0.995233 
vn 0.00264302 0.0487477 0.998808 
vn 0.00527974 0.0973791 0.995233 
vn 0.00789808 0.0481761 0.998808 
vn 0.0157773 0.0962374 0.995233 
vn 0.0130605 0.0470398 0.998808 
vn 0.0260899 0.0939674 0.995233 
vn 0.0180699 0.045352 0.998808 
vn 0.0360967 0.0905958 0.995233 
vn 0.0228674 0.0431324 0.998808 
vn 0.0456802 0.086162 0.995233 
vn 0.0273967 0.0404072 0.998808 
vn 0.0547281 0.080718 0.995233 
vn 0.0316049 0.0372082 0.998808 
vn 0.0631345 0.0743276 0.995233 
vn 0.0354426 0.033573 0.998808 
vn 0.0708006 0.0670659 0.995233 
vn 0.0388647 0.0295442 0.998808 
vn 0.0776367 0.0590179 0.995233 
vn 0.0418311 0.025169 0.998808 
vn 0.0835625 0.0502779 0.995233 
vn 0.0443072 0.0204987 0.998808 
vn 0.0885087 0.0409485 0.995233 
vn 0.0462637 0.0155881 0.998808 
vn 0.0924171 0.031139 0.995233 
vn 0.0476779 0.0104947 0.998808 
vn 0.0952421 0.0209644 0.995233 
vn 0.0485331 0.00527829 0.998808 
vn 0.0969504 0.010544 0.995233 
vn 0.0488193 -1.01626e-17 0.998808 
vn 0.0975221 -2.03009e-17 0.995233 
vn 0.0485331 -0.00527829 0.998808 
vn 0.0969504 -0.010544 0.995233 
vn 0.0476779 -0.0104947 0.998808 
vn 0.0952421 -0.0209644 0.995233 
vn 0.0462637 -0.0155881 0.998808 
vn 0.0924171 -0.031139 0.995233 
vn 0.0443072 -0.0204987 0.998808 
vn 0.0885087 -0.0409485 0.995233 
vn 0.0418311 -0.025169 0.998808 
vn 0.0835625 -0.0502779 0.995233 
vn 0.0388647 -0.0295442 0.998808 
vn 0.0776367 -0.0590179 0.995233 
vn 0.0354426 -0.033573 0.998808 
vn 0.0708006 -0.0670659 0.995233 
vn 0.0316049 -0.0372082 0.998808 
vn 0.0631345 -0.0743276 0.995233 
vn 0.0273967 -0.0404072 0.998808 
vn 0.0547281 -0.080718 0.995233 
vn 0.0228674 -0.0431324 0.998808 
vn 0.0456802 -0.086162 0.995233 
vn 0.0180699 -0.045352 0.998808 
vn 0.0360967 -0.0905958 0.995233 
vn 0.0130605 -0.0470398 0.998808 
vn 0.0260899 -0.0939674 0.995233 
vn 0.00789808 -0.0481761 0.998808 
vn 0.0157773 -0.0962374 0.995233 
vn 0.00264302 -0.0487477 0.998808 
vn 0.00527974 -0.0973791 0.995233 
vn -0.00264302 -0.0487477 0.998808 
vn -0.00527974 -0.0973791 0.995233 
vn -0.00789808 -0.0481761 0.998808 
vn -0.0157773 -0.0962374 0.995233 
vn -0.0130605 -0.0470398 0.998808 
vn -0.0260899 -0.0939674 0.995233 
vn -0.0180699 -0.045352 0.998808 
vn -0.0360967 -0.0905958 0.995233 
vn -0.0228674 -0.0431324 0.998808 
vn -0.0456802 -0.086162 0.995233 
vn -0.0273967 -0.0404072 0.998808 
vn -0.0547281 -0.080718 0.995233 
vn -0.0316049 -0.0372082 0.998808 
vn -0.0631345 -0.0743276 0.995233 
vn -0.0354426 -0.033573 0.998808 
vn -0.0708006 -0.0670659 0.995233 
vn -0.0388647 -0.0295442 0.998808 
vn -0.0776367 -0.0590179 0.995233 
vn -0.0418311 -0.025169 0.998808 
vn -0.0835625 -0.0502779 0.995233 
vn -0.0443072 -0.0204987 0.998808 
vn -0.0885087 -0.0409485 0.995233 
vn -0.0462637 -0.0155881 0.998808 
vn -0.0924171 -0.031139 0.995233 
vn -0.0476779 -0.0104947 0.998808 
vn -0.0952421 -0.0209644 0.995233 
vn -0.0485331 -0.00527829 0.998808 
vn -0.0969504 -0.010544 0.995233 
vn -0.0975221 0 0.995233 
vn -0.145137 0.0157846 0.989286 
vn -0.142579 0.031384 0.989286 
vn -0.13835 0.0466156 0.989286 
vn -0.132499 0.0613006 0.989286 
vn -0.125095 0.0752669 0.989286 
vn -0.116224 0.0883508 0.989286 
vn -0.10599 0.100399 0.989286 
vn -0.0945135 0.11127 0.989286 
vn -0.081929 0.120836 0.989286 
vn -0.0683841 0.128986 0.989286 
vn -0.0540374 0.135624 0.989286 
vn -0.0390571 0.140671 0.989286 
vn -0.0236189 0.144069 0.989286 
vn -0.00790387 0.145778 0.989286 
vn 0.00790387 0.145778 0.989286 
vn 0.0236189 0.144069 0.989286 
vn 0.0390571 0.140671 0.989286 
vn 0.0540374 0.135624 0.989286 
vn 0.0683841 0.128986 0.989286 
vn 0.081929 0.120836 0.989286 
vn 0.0945135 0.11127 0.989286 
vn 0.10599 0.100399 0.989286 
vn 0.116224 0.0883508 0.989286 
vn 0.125095 0.0752669 0.989286 
vn 0.132499 0.0613006 0.989286 
vn 0.13835 0.0466156 0.989286 
vn 0.142579 0.031384 0.989286 
vn 0.145137 0.0157846 0.989286 
vn 0.145992 -3.03908e-17 0.989286 
vn 0.145137 -0.0157846 0.989286 
vn 0.142579 -0.031384 0.989286 
vn 0.13835 -0.0466156 0.989286 
vn 0.132499 -0.0613006 0.989286 
vn 0.125095 -0.0752669 0.989286 
vn 0.116224 -0.0883508 0.989286 
vn 0.10599 -0.100399 0.989286 
vn 0.0945135 -0.11127 0.989286 
vn 0.081929 -0.120836 0.989286 
vn 0.0683841 -0.128986 0.989286 
vn 0.0540374 -0.135624 0.989286 
vn 0.0390571 -0.140671 0.989286 
vn 0.0236189 -0.144069 0.989286 
vn 0.00790387 -0.145778 0.989286 
vn -0.00790387 -0.145778 0.989286 
vn -0.0236189 -0.144069 0.989286 
vn -0.0390571 -0.140671 0.989286 
vn -0.0540374 -0.135624 0.989286 
vn -0.0683841 -0.128986 0.989286 
vn -0.081929 -0.120836 0.989286 
vn -0.0945135 -0.11127 0.989286 
vn -0.10599 -0.100399 0.989286 
vn -0.116224 -0.0883508 0.989286 
vn -0.125095 -0.0752669 0.989286 
vn -0.132499 -0.0613006 0.989286 
vn -0.13835 -0.0466156 0.989286 
vn -0.142579 -0.031384 0.989286 
vn -0.145137 -0.0157846 0.989286 
vn -0.145992 0 0.989286 
vn -6.11425e-17 -3.31505e-18 1 
vn 1 0 0 
vn 0 1 0 
vn -1 0 0 
vn 0 -1 0 
vn 0 0 -1 
usemtl 0.615686_0.811765_0.929412_0.000000_0.000000
o mesh0
f 59//1 60//2 61//3 
f 60//2 62//4 63//5 
f 62//4 64//6 65//7 
f 64//6 66//8 67//9 
f 66//8 68//10 69//11 
f 68//10 70//12 71//13 
f 70//12 72//14 73//15 
f 72//14 74//16 75//17 
f 74//16 76//18 77//19 
f 76//18 78//20 79//21 
f 78//20 80//22 81//23 
f 80//22 82//24 83//25 
f 82//24 84//26 85//27 
f 84//26 86//28 87//29 
f 86//28 88//30 89//31 
f 88//30 90//32 91//33 
f 90//32 92//34 93//35 
f 92//34 94//36 95//37 
f 94//36 96//38 97//39 
f 96//38 98//40 99//41 
f 98//40 100//42 101//43 
f 100//42 102//44 103//45 
f 102//44 104//46 105//47 
f 104//46 106//48 107//49 
f 106//48 108//50 109//51 
f 108//50 110//52 111//53 
f 110//52 112//54 113//55 
f 112//54 114//56 115//57 
f 114//56 116//58 117//59 
f 116//58 118//60 119//61 
f 118//60 120//62 121//63 
f 120//62 122//64 123//65 
f 122//64 124//66 125//67 
f 124//66 126//68 127//69 
f 126//68 128//70 129//71 
f 128//70 130//72 131//73 
f 130//72 132//74 133//75 
f 132//74 134//76 135//77 
f 134//76 136//78 137//79 
f 136//78 138//80 139//81 
f 138//80 140//82 141//83 
f 140//82 142//84 143//85 
f 142//84 144//86 145//87 
f 144//86 146//88 147//89 
f 146//88 148//90 149//91 
f 148//90 150//92 151//93 
f 150//92 152//94 153//95 
f 152//94 154//96 155//97 
f 154//96 156//98 157//99 
f 156//98 158//100 159//101 
f 158//100 160//102 161//103 
f 160//102 162//104 163//105 
f 162//104 164//106 165//107 
f 164//106 166//108 167//109 
f 166//108 168//110 169//111 
f 168//110 170//112 171//113 
f 170//112 172//114 173//115 
f 172//114 59//1 174//116 
f 174//116 61//3 1//117 
f 61//3 63//5 2//118 
f 63//5 65//7 3//119 
f 65//7 67//9 4//120 
f 67//9 69//11 5//121 
f 69//11 71//13 6//122 
f 71//13 73//15 7//123 
f 73//15 75//17 8//124 
f 75//17 77//19 9//125 
f 77//19 79//21 10//126 
f 79//21 81//23 11//127 
f 81//23 83//25 12//128 
f 83//25 85//27 13//129 
f 85//27 87//29 14//130 
f 87//29 89//31 15//131 
f 89//31 91//33 16//132 
f 91//33 93//35 17//133 
f 93//35 95//37 18//134 
f 95//37 97//39 19//135 
f 97//39 99//41 20//136 
f 99//41 101//43 21//137 
f 101//43 103//45 22//138 
f 103//45 105//47 23//139 
f 105//47 107//49 24//140 
f 107//49 109//51 25//141 
f 109//51 111//53 26//142 
f 111//53 113//55 27//143 
f 113//55 115//57 28//144 
f 115//57 117//59 29//145 
f 117//59 119//61 30//146 
f 119//61 121//63 31//147 
f 121//63 123//65 32//148 
f 123//65 125//67 33//149 
f 125//67 127//69 34//150 
f 127//69 129//71 35//151 
f 129//71 131//73 36//152 
f 131//73 133//75 37//153 
f 133//75 135//77 38//154 
f 135//77 137//79 39//155 
f 137//79 139//81 40//156 
f 139//81 141//83 41//157 
f 141//83 143//85 42//158 
f 143//85 145//87 43//159 
f 145//87 147//89 44//160 
f 147//89 149//91 45//161 
f 149//91 151//93 46//162 
f 151//93 153//95 47//163 
f 153//95 155//97 48//164 
f 155//97 157//99 49//165 
f 157//99 159//101 50//166 
f 159//101 161//103 51//167 
f 161//103 163//105 52//168 
f 163//105 165//107 53//169 
f 165//107 167//109 54//170 
f 167//109 169//111 55//171 
f 169//111 171//113 56//172 
f 171//113 173//115 57//173 
f 173//115 174//116 58//174 
f 58//174 57//173 173//115 
f 57//173 56//172 171//113 
f 56//172 55//171 169//111 
f 55//171 54//170 167//109 
f 54//170 53//169 165//107 
f 53//169 52//168 163//105 
f 52//168 51//167 161//103 
f 51//167 50//166 159//101 
f 50//166 49//165 157//99 
f 49//165 48//164 155//97 
f 48//164 47//163 153//95 
f 47//163 46//162 151//93 
f 46//162 45//161 149//91 
f 45//161 44//160 147//89 
f 44//160 43//159 145//87 
f 43//159 42//158 143//85 
f 42//158 41//157 141//83 
f 41//157 40//156 139//81 
f 40//156 39//155 137//79 
f 39//155 38//154 135//77 
f 38//154 37//153 133//75 
f 37//153 36//152 131//73 
f 36//152 35//151 129//71 
f 35//151 34//150 127//69 
f 34//150 33//149 125//67 
f 33//149 32//148 123//65 
f 32//148 31//147 121//63 
f 31//147 30//146 119//61 
f 30//146 29//145 117//59 
f 29//145 28//144 115//57 
f 28//144 27//143 113//55 
f 27//143 26//142 111//53 
f 26//142 25//141 109//51 
f 25//141 24//140 107//49 
f 24//140 23//139 105//47 
f 23//139 22//138 103//45 
f 22//138 21//137 101//43 
f 21//137 20//136 99//41 
f 20//136 19//135 97//39 
f 19//135 18//134 95//37 
f 18//134 17//133 93//35 
f 17//133 16//132 91//33 
f 16//132 15//131 89//31 
f 15//131 14//130 87//29 
f 14//130 13//129 85//27 
f 13//129 12//128 83//25 
f 12//128 11//127 81//23 
f 11//127 10//126 79//21 
f 10//126 9//125 77//19 
f 9//125 8//124 75//17 
f 8//124 7//123 73//15 
f 7//123 6//122 71//13 
f 6//122 5//121 69//11 
f 5//121 4//120 67//9 
f 4//120 3//119 65//7 
f 3//119 2//118 63//5 
f 2//118 1//117 61//3 
f 1//117 58//174 174//116 
f 174//116 173//115 172//114 
f 173//115 171//113 170//112 
f 171//113 169//111 168//110 
f 169//111 167//109 166//108 
f 167//109 165//107 164//106 
f 165//107 163//105 162//104 
f 163//105 161//103 160//102 
f 161//103 159//101 158//100 
f 159//101 157//99 156//98 
f 157//99 155//97 154//96 
f 155//97 153//95 152//94 
f 153//95 151//93 150//92 
f 151//93 149//91 148//90 
f 149//91 147//89 146//88 
f 147//89 145//87 144//86 
f 145//87 143//85 142//84 
f 143//85 141//83 140//82 
f 141//83 139//81 138//80 
f 139//81 137//79 136//78 
f 137//79 135//77 134//76 
f 135//77 133//75 132//74 
f 133//75 131//73 130//72 
f 131//73 129//71 128//70 
f 129//71 127//69 126//68 
f 127//69 125//67 124//66 
f 125//67 123//65 122//64 
f 123//65 121//63 120//62 
f 121//63 119//61 118//60 
f 119//61 117//59 116//58 
f 117//59 115//57 114//56 
f 115//57 113//55 112//54 
f 113//55 111//53 110//52 
f 111//53 109//51 108//50 
f 109//51 107//49 106//48 
f 107//49 105//47 104//46 
f 105//47 103//45 102//44 
f 103//45 101//43 100//42 
f 101//43 99//41 98//40 
f 99//41 97//39 96//38 
f 97//39 95//37 94//36 
f 95//37 93//35 92//34 
f 93//35 91//33 90//32 
f 91//33 89//31 88//30 
f 89//31 87//29 86//28 
f 87//29 85//27 84//26 
f 85//27 83//25 82//24 
f 83//25 81//23 80//22 
f 81//23 79//21 78//20 
f 79//21 77//19 76//18 
f 77//19 75//17 74//16 
f 75//17 73//15 72//14 
f 73//15 71//13 70//12 
f 71//13 69//11 68//10 
f 69//11 67//9 66//8 
f 67//9 65//7 64//6 
f 65//7 63//5 62//4 
f 63//5 61//3 60//2 
f 61//3 174//116 59//1 
f 59//1 172//114 175//175 
f 172//114 170//112 175//175 
f 170//112 168//110 175//175 
f 168//110 166//108 175//175 
f 166//108 164//106 175//175 
f 164//106 162//104 175//175 
f 162//104 160//102 175//175 
f 160//102 158//100 175//175 
f 158//100 156//98 175//175 
f 156//98 154//96 175//175 
f 154//96 152//94 175//175 
f 152//94 150//92 175//175 
f 150//92 148//90 175//175 
f 148//90 146//88 175//175 
f 146//88 144//86 175//175 
f 144//86 142//84 175//175 
f 142//84 140//82 175//175 
f 140//82 138//80 175//175 
f 138//80 136//78 175//175 
f 136//78 134//76 175//175 
f 134//76 132//74 175//175 
f 132//74 130//72 175//175 
f 130//72 128//70 175//175 
f 128//70 126//68 175//175 
f 126//68 124//66 175//175 
f 124//66 122//64 175//175 
f 122//64 120//62 175//175 
f 120//62 118//60 175//175 
f 118//60 116//58 175//175 
f 116//58 114//56 175//175 
f 114//56 112//54 175//175 
f 112//54 110//52 175//175 
f 110//52 108//50 175//175 
f 108//50 106//48 175//175 
f 106//48 104//46 175//175 
f 104//46 102//44 175//175 
f 102//44 100//42 175//175 
f 100//42 98//40 175//175 
f 98//40 96//38 175//175 
f 96//38 94//36 175//175 
f 94//36 92//34 175//175 
f 92//34 90//32 175//175 
f 90//32 88//30 175//175 
f 88//30 86//28 175//175 
f 86//28 84//26 175//175 
f 84//26 82//24 175//175 
f 82//24 80//22 175//175 
f 80//22 78//20 175//175 
f 78//20 76//18 175//175 
f 76//18 74//16 175//175 
f 74//16 72//14 175//175 
f 72//14 70//12 175//175 
f 70//12 68//10 175//175 
f 68//10 66//8 175//175 
f 66//8 64//6 175//175 
f 64//6 62//4 175//175 
f 62//4 60//2 175//175 
f 60//2 59//1 175//175 
o mesh1
f 176//175 177//175 14//175 
f 177//175 13//175 14//175 
f 177//175 12//175 13//175 
f 177//175 11//175 12//175 
f 177//175 9//175 10//175 
f 178//175 39//175 40//175 
f 10//175 11//175 177//175 
f 179//175 53//175 54//175 
f 179//175 47//175 48//175 
f 179//175 44//175 45//175 
f 178//175 43//175 44//175 
f 178//175 38//175 39//175 
f 178//175 36//175 37//175 
f 177//175 8//175 9//175 
f 177//175 6//175 7//175 
f 177//175 4//175 5//175 
f 179//175 55//175 56//175 
f 179//175 52//175 53//175 
f 179//175 50//175 51//175 
f 179//175 46//175 47//175 
f 44//175 179//175 178//175 
f 178//175 41//175 42//175 
f 37//175 38//175 178//175 
f 176//175 25//175 26//175 
f 176//175 23//175 24//175 
f 176//175 15//175 16//175 
f 7//175 8//175 177//175 
f 177//175 3//175 4//175 
f 177//175 1//175 2//175 
f 54//175 55//175 179//175 
f 179//175 49//175 50//175 
f 45//175 46//175 179//175 
f 40//175 41//175 178//175 
f 178//175 31//175 32//175 
f 176//175 28//175 29//175 
f 24//175 25//175 176//175 
f 176//175 18//175 19//175 
f 14//175 15//175 176//175 
f 2//175 3//175 177//175 
f 51//175 52//175 179//175 
f 42//175 43//175 178//175 
f 178//175 34//175 35//175 
f 32//175 33//175 178//175 
f 178//175 29//175 30//175 
f 176//175 27//175 28//175 
f 176//175 22//175 23//175 
f 176//175 20//175 21//175 
f 176//175 17//175 18//175 
f 5//175 6//175 177//175 
f 48//175 49//175 179//175 
f 33//175 34//175 178//175 
f 29//175 178//175 176//175 
f 21//175 22//175 176//175 
f 16//175 17//175 176//175 
f 177//175 179//175 58//175 
f 35//175 36//175 178//175 
f 26//175 27//175 176//175 
f 58//175 1//175 177//175 
f 56//175 57//175 179//175 
f 19//175 20//175 176//175 
f 30//175 31//175 178//175 
f 57//175 58//175 179//175 
o mesh2
f 180//176 179//176 177//176 
f 177//176 181//176 180//176 
o mesh3
f 182//177 178//177 179//177 
f 179//177 180//177 182//177 
o mesh4
f 183//178 176//178 178//178 
f 178//178 182//178 183//178 
o mesh5
f 181//179 177//179 176//179 
f 176//179 183//179 181//179 
o mesh6
f 182//180 180//180 181//180 
f 181//180 183//180 182//180 
